<?xml version="1.0" encoding="UTF-8" standalone="no"?>
<svg
   xmlns:dc="http://purl.org/dc/elements/1.1/"
   xmlns:cc="http://creativecommons.org/ns#"
   xmlns:rdf="http://www.w3.org/1999/02/22-rdf-syntax-ns#"
   xmlns:svg="http://www.w3.org/2000/svg"
   xmlns="http://www.w3.org/2000/svg"
   id="svg11"
   version="1.1"
   width="32"
   height="32">
  <metadata
     id="metadata17">
    <rdf:RDF>
      <cc:Work
         rdf:about="">
        <dc:format>image/svg+xml</dc:format>
        <dc:type
           rdf:resource="http://purl.org/dc/dcmitype/StillImage" />
        <dc:title></dc:title>
      </cc:Work>
    </rdf:RDF>
  </metadata>
  <defs
     id="defs15" />
  <path
     style="stroke-width:0.04018261"
     id="path9"
     d="M 10.739533,3.561401 C 8.5113652,5.7369695 9.1263299,9.2116974 9.1263299,9.2116974 c 0,0 2.2742701,2.4521646 6.7425731,2.4521646 4.468261,0 6.743878,-2.4521646 6.743878,-2.4521646 0,0 0.605779,-3.4280183 -1.575022,-5.6059635 1.364317,-0.6908618 2.167653,-1.6894725 1.83575,-2.3683358 C 22.496852,0.47228412 20.834935,0.40404387 19.154559,1.0853222 18.530365,1.3379729 17.998291,1.6588639 17.584804,2.0000972 17.060652,1.9138906 16.504939,1.855228 15.868819,1.855228 c -0.592547,0 -1.11931,0.051495 -1.615857,0.124527 C 13.846047,1.6444952 13.323245,1.3331813 12.713505,1.0853223 11.033129,0.40642064 9.3685572,0.47465461 8.994555,1.2373983 8.6680457,1.9018929 9.4279339,2.8729161 10.739533,3.561401 Z m 16.903841,15.832544 c -0.347664,-0.06705 -0.679525,-0.105364 -1.000851,-0.134105 0,-0.08143 0.0158,-0.158049 0.0158,-0.241846 0,-1.287155 -0.200169,-2.515544 -0.524151,-3.68304 0.692715,0.05386 1.575024,-0.091 2.467867,-0.451315 1.680378,-0.681284 2.739173,-1.853495 2.36517,-2.613817 -0.374002,-0.765121 -2.038575,-0.833355 -3.718949,-0.152076 -0.784878,0.318476 -1.424875,0.74596 -1.854208,1.184165 -0.326593,-0.699251 -0.695328,-1.370953 -1.129886,-1.98162 -1.272156,0.963855 -3.679423,2.403091 -7.040174,2.722749 v 12.329085 c 0,0 -0.01051,1.226082 -1.349821,1.226082 -1.337979,0 -1.348514,-1.226082 -1.348514,-1.226082 V 14.047793 C 11.162335,13.728091 8.753677,12.286484 7.4841771,11.325044 7.068034,11.911728 6.7098348,12.551127 6.3911217,13.215666 5.9578693,12.808569 5.3533977,12.417023 4.6225029,12.120084 2.9421273,11.441176 1.2775546,11.509416 0.90355248,12.272153 c -0.37530847,0.762706 0.68479252,1.93254 2.36516812,2.613825 0.8362477,0.338933 1.665879,0.490894 2.3375235,0.46346 -0.322632,1.164934 -0.5254571,2.388717 -0.5254571,3.671048 0,0.08384 0.015803,0.16284 0.018457,0.249046 -0.2831458,0.02876 -0.576827,0.06705 -0.8757336,0.124521 -2.19003,0.41189 -3.86775057,1.441607 -3.74398222,2.291708 0.12381043,0.854885 2.00170132,1.206922 4.19699872,0.792663 0.2857587,-0.05271 0.5662919,-0.119742 0.8335927,-0.193956 0.3858437,1.563604 1.0034634,3.014789 1.8581689,4.264822 -0.5069995,0.232264 -1.0337629,0.574724 -1.5183854,1.020143 -1.3432891,1.22129 -1.888426,2.706003 -1.2168659,3.31667 0.6716446,0.610631 2.303263,0.11495 3.6465099,-1.103938 0.3937668,-0.359198 0.7098244,-0.737564 0.9547487,-1.111138 1.8344852,1.633146 4.1324812,2.610182 6.6398752,2.610182 2.54292,0 4.879136,-1.005773 6.722809,-2.679681 0.247579,0.395104 0.57944,0.797409 0.995583,1.175813 1.340592,1.221292 2.976214,1.716977 3.647816,1.106348 0.671602,-0.61063 0.126427,-2.092966 -1.216823,-3.314256 -0.518842,-0.47415 -1.08252,-0.833355 -1.619819,-1.070449 0.848089,-1.245242 1.459135,-2.696433 1.841058,-4.25536 0.302911,0.08621 0.618969,0.167633 0.950788,0.23227 2.193906,0.414259 4.071882,0.05986 4.198305,-0.792663 0.118549,-0.847685 -1.559178,-1.877403 -3.750514,-2.289292 z" />
</svg>
